# xmcd
#
# Track frame offsets:
# 150
# 15180
# 33005
# 48170
# 64402
# 80889
# 97137
# 111510
# 127163
# 140888
# 158173
# 176247
# 191717
# 211637
# 228436
# 245899
# 262202
# 278628
# 294453
# 310864
# 329052
#
# Disc length: 4611 seconds
#
#
# Revision: 1
# Processed by: cddbd v1.5.1PL2 Copyright (c) Steve Scherf et al.
# Submitted via: FreeRIP 2.70 
#
DISCID=4a120115
DTITLE=Diverse - The Dome Summer 2006 Cd I
DYEAR=1900
DGENRE=
TTITLE0=Nelly Furtado - Maneater
TTITLE1=Xavier Naidoo - Zeilen Aus Gold
TTITLE2=Bob Sinclar and Steve Edwards - World, Hold On
TTITLE3=Goleo Vi and Lumidee and Fatman Scoop - Dance
TTITLE4=Sean Paul - Temperature
TTITLE5=Sergio Mendes and Black Eyed Peas - Mas Que Nada
TTITLE6=Goleo Vi and Atomic Kitten - All Together Now (Strong Together)
TTITLE7=Juanes - A Dios Le Pido
TTITLE8=Texas Lightning - No No Never
TTITLE9=Tiziano Ferro - Stop! Dimentica
TTITLE10=Flipsyde - Trumpets (Never Be The Same Again)
TTITLE11=Arash - Arash
TTITLE12=Pachanga - Close To You
TTITLE13=Azad and Cassandra Steen - Eines Tages
TTITLE14=The Pussycat Dolls and Will.I.Am - Beep
TTITLE15=Busta Rhymes - Touch It
TTITLE16=Black Eyed Peas  - Pump It
TTITLE17=Seeed - Ding
TTITLE18=Bluelagoon - Isle Of Paradise
TTITLE19=Rihanna - Sos
TTITLE20=Shanadoo - King Kong
EXTD=
EXTT0=
EXTT1=
EXTT2=
EXTT3=
EXTT4=
EXTT5=
EXTT6=
EXTT7=
EXTT8=
EXTT9=
EXTT10=
EXTT11=
EXTT12=
EXTT13=
EXTT14=
EXTT15=
EXTT16=
EXTT17=
EXTT18=
EXTT19=
EXTT20=
PLAYORDER=
